<?xml version="1.0" encoding="iso-8859-1"?>
<!-- Generator: Adobe Illustrator 19.0.0, SVG Export Plug-In . SVG Version: 6.00 Build 0)  -->
<svg version="1.1" id="Layer_1" xmlns="http://www.w3.org/2000/svg" xmlns:xlink="http://www.w3.org/1999/xlink" x="0px" y="0px"
	 viewBox="0 0 511.999 511.999" style="enable-background:new 0 0 511.999 511.999;" xml:space="preserve">
<path style="fill:#AEBB3F;" d="M227.515,358.03l-1.089,16.272H114.479l78.037-135.764l-88.804-51.457L25.316,323.468
	C4.404,359.848,2.557,398.25,20.249,428.824c17.692,30.575,51.905,48.111,93.867,48.111h112.31l1.089,16.272l14.717-16.273
	l79.092-51.318l-79.093-51.319L227.515,358.03z"/>
<path style="fill:#DDD244;" d="M344.507,76.121c-20.943-36.434-53.202-57.332-88.508-57.332s-67.564,20.897-88.508,57.332
	l-56.486,98.272l-13.991-8.077l27.969,86.734l89.098-19.146l-14.192-8.195l56.108-97.614l77.689,135.156l88.803-51.458
	L344.507,76.121z"/>
<path style="fill:#7FA339;" d="M486.682,323.469l-56.818-98.847l14.193-8.195l-89.099-19.146l-27.968,86.735l13.99-8.077
	l56.539,98.363H242.231l46.414,51.317l-46.414,51.318h155.652c41.961,0,76.175-17.536,93.867-48.111
	C509.442,398.252,507.595,359.849,486.682,323.469z"/>
<path d="M493.766,319.398l-52.755-91.778l7.131-4.117c2.926-1.689,4.511-5.006,3.986-8.344s-3.051-6.008-6.354-6.718l-18.012-3.87
	L351.591,72.05C329.149,33.01,294.308,10.62,255.999,10.62s-73.15,22.39-95.59,61.43l-23.917,41.609
	c-2.248,3.912-0.9,8.906,3.012,11.154c3.909,2.247,8.905,0.901,11.154-3.012l23.916-41.609
	c19.447-33.831,49.125-53.233,81.425-53.233s61.979,19.403,81.424,53.233l68.837,119.758l-49.586-10.655
	c-4.097-0.881-8.203,1.487-9.492,5.48l-15.609,48.407l-68.492-119.157c-1.457-2.536-4.159-4.098-7.082-4.098
	c-2.925,0-5.626,1.563-7.082,4.098l-56.108,97.614c-1.563,2.72-1.388,5.963,0.18,8.443l-62.495,13.43l-19.654-60.95
	c0.767,0.019,1.537-0.076,2.291-0.279c2.095-0.563,3.88-1.937,4.961-3.818l16.285-28.331c2.248-3.912,0.9-8.906-3.012-11.154
	c-3.909-2.248-8.905-0.901-11.154,3.012l-12.207,21.234l-6.902-3.985c-2.927-1.689-6.59-1.404-9.219,0.721
	c-2.628,2.124-3.677,5.646-2.641,8.862l5.587,17.325L18.234,319.4c-22.404,38.977-24.247,80.354-5.056,113.52
	c19.192,33.166,55.983,52.188,100.939,52.188h104.668l0.578,8.648c0.219,3.272,2.374,6.097,5.471,7.172
	c0.877,0.305,1.782,0.452,2.677,0.452c2.269,0,4.483-0.947,6.061-2.69l12.284-13.582h86.669c4.512,0,8.17-3.658,8.17-8.17
	c0-4.512-3.658-8.17-8.17-8.17h-71.891l34.069-37.668c2.814-3.111,2.814-7.848,0-10.96l-34.068-37.667H397.52
	c2.916,0,5.611-1.554,7.072-4.078s1.465-5.635,0.012-8.163l-56.539-98.362c-1.082-1.881-2.866-3.255-4.961-3.818
	c-0.753-0.203-1.514-0.293-2.291-0.279l19.654-60.95l62.496,13.429c-1.567,2.48-1.743,5.723-0.18,8.443l56.818,98.847
	c19.421,33.785,21.271,69.211,5.079,97.195c-16.192,27.983-47.829,44.033-86.797,44.033h-32.678c-4.512,0-8.17,3.658-8.17,8.17
	c0,4.512,3.658,8.17,8.17,8.17h32.678c44.956,0,81.747-19.022,100.939-52.188C518.013,399.752,516.17,358.375,493.766,319.398z
	 M233.996,473.863c-1.22-3.003-4.164-5.096-7.572-5.096H114.116c-38.968,0-70.603-16.049-86.797-44.033
	c-16.192-27.983-14.341-63.409,5.079-97.195l69.199-120.389l15.609,48.406c1.289,3.993,5.389,6.362,9.492,5.48l49.585-10.655
	L107.396,370.23c-1.453,2.528-1.449,5.639,0.012,8.163s4.156,4.078,7.072,4.078h111.947c3.407,0,6.352-2.092,7.572-5.096
	l43.633,48.243L233.996,473.863z M383.401,366.132H245.857l-12.284-13.582c-2.2-2.432-5.642-3.315-8.739-2.237
	c-3.098,1.076-5.252,3.9-5.471,7.172l-0.578,8.648h-90.186l69.19-120.37l18.011-3.87c3.304-0.71,5.83-3.38,6.354-6.718
	c0.525-3.338-1.06-6.654-3.986-8.344l-7.13-4.117l44.962-78.223l68.803,119.697l-5.586,17.323c-1.037,3.216,0.013,6.738,2.641,8.861
	c2.628,2.124,6.293,2.409,9.219,0.72l6.902-3.985L383.401,366.132z"/>
<g>
</g>
<g>
</g>
<g>
</g>
<g>
</g>
<g>
</g>
<g>
</g>
<g>
</g>
<g>
</g>
<g>
</g>
<g>
</g>
<g>
</g>
<g>
</g>
<g>
</g>
<g>
</g>
<g>
</g>
</svg>
