<?xml version="1.0" encoding="UTF-8"?>
<svg xmlns="http://www.w3.org/2000/svg" xmlns:xlink="http://www.w3.org/1999/xlink" width="22px" height="22px" viewBox="0 0 22 22" version="1.1">
<g id="surface1">
<path style="fill-rule:nonzero;fill:rgb(20.392157%,46.666667%,96.470588%);fill-opacity:1;stroke-width:6;stroke-linecap:butt;stroke-linejoin:miter;stroke:rgb(20.392157%,46.666667%,96.470588%);stroke-opacity:1;stroke-miterlimit:4;" d="M 400.878906 146.484375 C 402.34375 146.484375 403.515625 145.507812 403.90625 144.042969 C 404.199219 142.578125 403.613281 141.015625 402.441406 140.332031 L 356.738281 112.597656 C 356.738281 112.5 356.640625 112.5 356.640625 112.402344 L 340.234375 102.246094 L 340.234375 29.003906 C 340.234375 27.636719 339.453125 26.367188 338.183594 25.878906 C 336.914062 25.488281 335.449219 25.878906 334.667969 27.050781 L 295.019531 84.863281 L 253.125 84.960938 L 213.867188 27.734375 C 213.085938 26.5625 211.621094 26.074219 210.351562 26.5625 C 209.082031 26.953125 208.300781 28.222656 208.300781 29.6875 L 208.300781 102.441406 L 199.804688 107.910156 C 199.804688 107.910156 199.707031 107.910156 199.707031 107.910156 L 147.167969 140.332031 C 145.898438 141.015625 145.3125 142.578125 145.703125 144.042969 C 146.09375 145.507812 147.265625 146.484375 148.730469 146.484375 L 158.984375 146.484375 L 158.984375 151.953125 L 154.101562 151.953125 C 152.050781 151.953125 150.390625 153.710938 150.390625 155.957031 C 150.390625 158.105469 152.050781 159.863281 154.101562 159.863281 L 158.984375 159.863281 L 158.984375 163.574219 L 154.101562 163.574219 C 152.050781 163.574219 150.390625 165.332031 150.390625 167.578125 C 150.390625 169.726562 152.050781 171.484375 154.101562 171.484375 L 158.984375 171.484375 L 158.984375 182.519531 C 158.984375 183.984375 160.058594 185.15625 161.425781 185.15625 L 173.828125 185.15625 C 175.195312 185.15625 176.269531 183.984375 176.269531 182.519531 L 176.269531 171.484375 L 181.933594 171.484375 C 183.984375 171.484375 185.644531 169.726562 185.644531 167.578125 C 185.644531 165.332031 183.984375 163.574219 181.933594 163.574219 L 176.269531 163.574219 L 176.269531 159.863281 L 181.933594 159.863281 C 183.984375 159.863281 185.644531 158.105469 185.644531 155.957031 C 185.644531 153.710938 183.984375 151.953125 181.933594 151.953125 L 176.269531 151.953125 L 176.269531 146.484375 L 199.511719 146.484375 L 249.902344 308.59375 L 222.363281 435.449219 L 191.015625 512.792969 C 190.820312 513.183594 190.722656 513.671875 190.722656 514.160156 L 182.128906 514.160156 L 182.128906 523.828125 L 228.417969 523.828125 L 228.417969 514.160156 L 217.382812 514.160156 L 265.820312 439.84375 L 282.421875 439.84375 L 330.273438 514.160156 L 319.628906 514.160156 L 319.628906 523.828125 L 366.015625 523.828125 L 366.015625 514.160156 L 357.519531 514.160156 C 357.519531 513.671875 357.421875 513.183594 357.324219 512.792969 L 325.878906 435.449219 L 302.050781 308.59375 L 349.21875 146.484375 L 376.5625 146.484375 L 376.5625 151.953125 L 371.777344 151.953125 C 369.726562 151.953125 368.066406 153.710938 368.066406 155.957031 C 368.066406 158.105469 369.726562 159.863281 371.777344 159.863281 L 376.5625 159.863281 L 376.5625 163.574219 L 371.777344 163.574219 C 369.726562 163.574219 368.066406 165.332031 368.066406 167.578125 C 368.066406 169.726562 369.726562 171.484375 371.777344 171.484375 L 376.5625 171.484375 L 376.5625 182.519531 C 376.5625 183.886719 377.734375 185.15625 379.101562 185.15625 L 391.40625 185.15625 C 392.773438 185.15625 393.847656 183.886719 393.847656 182.519531 L 393.847656 171.484375 L 399.511719 171.484375 C 401.5625 171.484375 403.222656 169.726562 403.222656 167.578125 C 403.222656 165.332031 401.5625 163.574219 399.511719 163.574219 L 393.847656 163.574219 L 393.847656 159.863281 L 399.511719 159.863281 C 401.5625 159.863281 403.222656 158.105469 403.222656 155.957031 C 403.222656 153.710938 401.5625 151.953125 399.511719 151.953125 L 393.847656 151.953125 L 393.847656 146.484375 Z M 181.933594 166.210938 C 182.617188 166.210938 183.203125 166.796875 183.203125 167.578125 C 183.203125 168.261719 182.617188 168.847656 181.933594 168.847656 L 154.101562 168.847656 C 153.417969 168.847656 152.929688 168.261719 152.929688 167.578125 C 152.929688 166.796875 153.417969 166.210938 154.101562 166.210938 Z M 181.933594 154.589844 C 182.617188 154.589844 183.203125 155.175781 183.203125 155.957031 C 183.203125 156.640625 182.617188 157.226562 181.933594 157.226562 L 154.101562 157.226562 C 153.417969 157.226562 152.929688 156.640625 152.929688 155.957031 C 152.929688 155.175781 153.417969 154.589844 154.101562 154.589844 Z M 399.511719 166.210938 C 400.195312 166.210938 400.78125 166.796875 400.78125 167.578125 C 400.78125 168.261719 400.195312 168.847656 399.511719 168.847656 L 371.777344 168.847656 C 371.09375 168.847656 370.507812 168.261719 370.507812 167.578125 C 370.507812 166.796875 371.09375 166.210938 371.777344 166.210938 Z M 399.511719 154.589844 C 400.195312 154.589844 400.78125 155.175781 400.78125 155.957031 C 400.78125 156.640625 400.195312 157.226562 399.511719 157.226562 L 371.777344 157.226562 C 371.09375 157.226562 370.507812 156.640625 370.507812 155.957031 C 370.507812 155.175781 371.09375 154.589844 371.777344 154.589844 Z M 239.160156 433.203125 L 273.828125 416.40625 L 306.933594 433.203125 Z M 229.492188 432.03125 L 236.914062 397.65625 L 267.96875 413.378906 Z M 250.976562 333.007812 L 269.921875 342.96875 L 245.996094 355.859375 Z M 259.277344 331.445312 L 291.503906 331.445312 L 275.488281 340.039062 Z M 275.488281 345.996094 L 302.636719 360.351562 L 275.292969 372.558594 L 248.632812 360.351562 Z M 244.238281 364.160156 L 268.945312 375.390625 L 238.867188 388.867188 Z M 240.722656 393.75 L 275.292969 378.320312 L 308.691406 393.652344 L 273.828125 410.546875 Z M 281.640625 375.488281 L 306.25 364.550781 L 310.839844 388.867188 Z M 281.054688 342.96875 L 300.292969 332.714844 L 304.492188 355.371094 Z M 252.441406 326.171875 L 255.566406 311.71875 L 296.289062 311.71875 L 299.023438 326.171875 Z M 263.183594 259.863281 L 241.113281 254.589844 L 243.652344 233.496094 Z M 309.082031 230.859375 L 310.9375 254.296875 L 286.914062 259.667969 Z M 282.324219 265.625 L 293.164062 305.078125 L 257.421875 305.078125 L 267.285156 265.429688 L 272.851562 272.949219 C 273.339844 273.535156 274.023438 273.925781 274.804688 273.925781 C 275.488281 273.925781 276.269531 273.535156 276.660156 272.949219 Z M 237.109375 246.484375 L 225.390625 208.886719 L 239.355469 227.734375 Z M 262.304688 265.039062 L 253.710938 299.707031 L 241.308594 260.058594 Z M 297.460938 302.050781 L 287.304688 265.039062 L 309.667969 259.960938 Z M 313.574219 225 L 323.730469 211.71875 L 314.941406 242.089844 Z M 327.636719 198.339844 L 274.804688 267.089844 L 243.945312 225.390625 L 223.730469 198.144531 L 254.589844 146.484375 L 264.941406 146.484375 L 264.941406 151.953125 L 260.15625 151.953125 C 258.105469 151.953125 256.445312 153.710938 256.445312 155.957031 C 256.445312 158.105469 258.105469 159.960938 260.15625 159.960938 L 264.941406 159.960938 L 264.941406 163.574219 L 260.15625 163.574219 C 258.105469 163.574219 256.445312 165.332031 256.445312 167.578125 C 256.445312 169.726562 258.105469 171.484375 260.15625 171.484375 L 264.941406 171.484375 L 264.941406 182.519531 C 264.941406 183.984375 266.113281 185.15625 267.480469 185.15625 L 279.785156 185.15625 C 281.152344 185.15625 282.226562 183.984375 282.226562 182.519531 L 282.226562 171.484375 L 287.890625 171.484375 C 289.941406 171.484375 291.601562 169.726562 291.601562 167.578125 C 291.601562 165.332031 289.941406 163.574219 287.890625 163.574219 L 282.226562 163.574219 L 282.226562 159.960938 L 287.890625 159.960938 C 289.941406 159.960938 291.601562 158.105469 291.601562 155.957031 C 291.601562 153.710938 289.941406 151.953125 287.890625 151.953125 L 282.226562 151.953125 L 282.226562 146.484375 L 293.945312 146.484375 L 327.734375 198.046875 Z M 221.386719 101.757812 L 202.636719 135.839844 L 196.972656 117.480469 Z M 271.777344 91.601562 L 252.34375 134.667969 L 232.617188 94.53125 L 237.109375 91.699219 Z M 310.449219 91.40625 L 314.257812 93.847656 L 295.117188 136.425781 L 279.785156 91.503906 Z M 255.46875 139.84375 L 275.683594 95.019531 L 291.113281 139.84375 Z M 228.90625 98.4375 L 249.316406 139.84375 L 206.25 139.84375 Z M 287.988281 154.589844 C 288.574219 154.589844 289.160156 155.175781 289.160156 155.957031 C 289.160156 156.640625 288.574219 157.226562 287.988281 157.226562 L 260.15625 157.226562 C 259.472656 157.226562 258.886719 156.640625 258.886719 155.957031 C 258.886719 155.175781 259.472656 154.589844 260.15625 154.589844 Z M 287.988281 166.210938 C 288.574219 166.210938 289.160156 166.796875 289.160156 167.578125 C 289.160156 168.261719 288.574219 168.847656 287.988281 168.847656 L 260.15625 168.847656 C 259.472656 168.847656 258.886719 168.261719 258.886719 167.578125 C 258.886719 166.796875 259.472656 166.210938 260.15625 166.210938 Z M 317.96875 97.851562 L 340.429688 139.84375 L 299.023438 139.84375 Z M 325.097656 100.585938 L 346.582031 113.867188 C 346.679688 113.964844 346.777344 114.160156 346.972656 114.257812 L 351.367188 116.894531 L 345.214844 138.085938 Z M 331.542969 96.875 L 319.433594 64.257812 L 334.082031 58.398438 L 334.082031 98.4375 Z M 334.082031 51.367188 C 333.886719 51.464844 333.789062 51.464844 333.59375 51.464844 L 322.558594 55.957031 L 334.082031 39.160156 Z M 314.160156 68.066406 L 322.851562 91.503906 L 312.792969 85.253906 C 312.304688 84.960938 311.816406 84.765625 311.230469 84.765625 L 302.734375 84.863281 Z M 236.230469 85.058594 C 235.644531 85.058594 235.15625 85.15625 234.667969 85.449219 L 224.902344 91.796875 L 233.789062 67.871094 L 245.507812 84.960938 Z M 227.050781 58.105469 L 214.453125 53.125 L 214.453125 39.746094 Z M 214.453125 60.15625 L 227.929688 65.625 L 216.113281 97.363281 L 214.453125 98.4375 Z M 160.253906 139.84375 L 191.40625 120.703125 L 197.363281 139.84375 Z M 248.730469 146.484375 L 220.605469 193.554688 L 205.957031 146.484375 Z M 212.011719 510.839844 L 198.535156 510.839844 L 227.34375 439.84375 L 258.300781 439.84375 Z M 335.644531 510.839844 L 289.941406 439.84375 L 320.898438 439.84375 L 349.707031 510.839844 Z M 318.457031 433.203125 L 279.785156 413.574219 L 312.5 397.65625 L 319.140625 433.203125 Z M 329.589844 191.699219 L 300 146.484375 L 342.773438 146.484375 Z M 356.835938 120.214844 L 389.160156 139.84375 L 351.171875 139.84375 Z M 356.835938 120.214844 " transform="matrix(0.04,0,0,0.04,0,0)"/>
</g>
</svg>
