<?xml version="1.0" encoding="UTF-8"?>
<svg xmlns="http://www.w3.org/2000/svg" xmlns:xlink="http://www.w3.org/1999/xlink" width="128px" height="128px" viewBox="0 0 128 128" version="1.1">
<g id="surface1">
<path style="fill-rule:nonzero;fill:rgb(20.392157%,46.666667%,96.470588%);fill-opacity:1;stroke-width:6;stroke-linecap:butt;stroke-linejoin:miter;stroke:rgb(20.392157%,46.666667%,96.470588%);stroke-opacity:1;stroke-miterlimit:4;" d="M 400.891016 146.502344 C 402.301953 146.502344 403.511328 145.477734 403.880859 144.016406 C 404.233594 142.571875 403.628906 141.043359 402.419531 140.2875 L 356.765625 112.572656 C 356.715234 112.539062 356.681641 112.471875 356.614453 112.438281 L 340.271094 102.292969 L 340.271094 29.041797 C 340.271094 27.614062 339.414453 26.3375 338.137891 25.883984 C 336.878125 25.447266 335.483984 25.917578 334.694531 27.076562 L 295.003516 84.857812 L 253.145703 84.975391 L 213.841016 27.731641 C 213.051562 26.572656 211.657422 26.102344 210.397656 26.555859 C 209.121094 26.992578 208.264453 28.269141 208.264453 29.696875 L 208.264453 102.444141 L 199.815625 107.869531 C 199.782031 107.886328 199.748437 107.886328 199.714844 107.903125 L 147.157422 140.304297 C 145.93125 141.043359 145.343359 142.571875 145.712891 144.033203 C 146.065625 145.477734 147.291797 146.485547 148.685937 146.485547 L 158.965625 146.485547 L 158.965625 151.944531 L 154.128125 151.944531 C 152.095703 151.944531 150.432812 153.741797 150.432812 155.925391 C 150.432812 158.125781 152.095703 159.90625 154.128125 159.90625 L 158.965625 159.90625 L 158.965625 163.567969 L 154.128125 163.567969 C 152.095703 163.567969 150.432812 165.348437 150.432812 167.548828 C 150.432812 169.732422 152.095703 171.529687 154.128125 171.529687 L 158.965625 171.529687 L 158.965625 182.48125 C 158.965625 183.942578 160.074219 185.118359 161.451562 185.118359 L 173.797266 185.118359 C 175.157813 185.118359 176.266406 183.942578 176.266406 182.48125 L 176.266406 171.529687 L 181.926953 171.529687 C 183.976172 171.529687 185.639062 169.732422 185.639062 167.548828 C 185.639062 165.348437 183.976172 163.567969 181.926953 163.567969 L 176.266406 163.567969 L 176.266406 159.90625 L 181.926953 159.90625 C 183.976172 159.90625 185.639062 158.125781 185.639062 155.925391 C 185.639062 153.725 183.976172 151.944531 181.926953 151.944531 L 176.266406 151.944531 L 176.266406 146.485547 L 199.462891 146.485547 L 249.9375 308.575391 L 222.390625 435.442187 L 190.997266 512.791797 C 190.829297 513.228516 190.762109 513.682031 190.762109 514.11875 L 182.094922 514.11875 L 182.094922 523.860937 L 228.420703 523.860937 L 228.420703 514.11875 L 217.368359 514.11875 L 265.860937 439.792578 L 282.405859 439.792578 L 330.310547 514.11875 L 319.644531 514.11875 L 319.644531 523.860937 L 365.987109 523.860937 L 365.987109 514.11875 L 357.521484 514.11875 C 357.521484 513.665234 357.454297 513.228516 357.269531 512.791797 L 325.909766 435.492578 L 302.024609 308.592187 L 349.223828 146.485547 L 376.585938 146.485547 L 376.585938 151.944531 L 371.748437 151.944531 C 369.699219 151.944531 368.036328 153.741797 368.036328 155.925391 C 368.036328 158.108984 369.699219 159.90625 371.748437 159.90625 L 376.585938 159.90625 L 376.585938 163.551172 L 371.748437 163.551172 C 369.699219 163.551172 368.036328 165.348437 368.036328 167.532031 C 368.036328 169.732422 369.699219 171.512891 371.748437 171.512891 L 376.585938 171.512891 L 376.585938 182.464453 C 376.585938 183.925781 377.694531 185.118359 379.055078 185.118359 L 391.417578 185.118359 C 392.778125 185.118359 393.886719 183.925781 393.886719 182.464453 L 393.886719 171.512891 L 399.547266 171.512891 C 401.596484 171.512891 403.259375 169.732422 403.259375 167.532031 C 403.259375 165.348437 401.596484 163.551172 399.547266 163.551172 L 393.886719 163.551172 L 393.886719 159.90625 L 399.547266 159.90625 C 401.596484 159.90625 403.259375 158.108984 403.259375 155.925391 C 403.259375 153.725 401.596484 151.944531 399.547266 151.944531 L 393.886719 151.944531 L 393.886719 146.485547 L 400.891016 146.485547 Z M 181.926953 166.221875 C 182.615625 166.221875 183.169922 166.826562 183.169922 167.548828 C 183.169922 168.287891 182.615625 168.875781 181.926953 168.875781 L 154.128125 168.875781 C 153.439453 168.875781 152.885156 168.287891 152.885156 167.548828 C 152.885156 166.826562 153.439453 166.221875 154.128125 166.221875 Z M 181.926953 154.615234 C 182.615625 154.615234 183.169922 155.203125 183.169922 155.942187 C 183.169922 156.664453 182.615625 157.269141 181.926953 157.269141 L 154.128125 157.269141 C 153.439453 157.269141 152.885156 156.664453 152.885156 155.942187 C 152.885156 155.203125 153.439453 154.615234 154.128125 154.615234 Z M 399.547266 166.221875 C 400.235937 166.221875 400.790234 166.826562 400.790234 167.548828 C 400.790234 168.287891 400.235937 168.875781 399.547266 168.875781 L 371.748437 168.875781 C 371.059766 168.875781 370.522266 168.287891 370.522266 167.548828 C 370.522266 166.826562 371.059766 166.221875 371.748437 166.221875 Z M 399.547266 154.615234 C 400.235937 154.615234 400.790234 155.203125 400.790234 155.942187 C 400.790234 156.664453 400.235937 157.269141 399.547266 157.269141 L 371.748437 157.269141 C 371.059766 157.269141 370.522266 156.664453 370.522266 155.942187 C 370.522266 155.203125 371.059766 154.615234 371.748437 154.615234 Z M 239.170703 433.174609 L 273.822656 416.394531 L 306.9125 433.174609 Z M 229.478906 432.049219 L 236.936719 397.699609 L 267.94375 413.421484 Z M 250.978906 332.964453 L 269.942578 343.008984 L 246.023828 355.808203 Z M 259.310156 331.469531 L 291.543359 331.469531 L 275.502344 340.035937 Z M 275.519141 345.965234 L 302.679688 360.343359 L 275.283984 372.588281 L 248.59375 360.360156 Z M 244.209766 364.122656 L 268.901172 375.426953 L 238.851562 388.847656 Z M 240.749609 393.769141 L 275.250391 378.349609 L 308.709766 393.668359 L 273.85625 410.549219 Z M 281.633203 375.494141 L 306.257422 364.508984 L 310.826172 388.864453 Z M 281.078906 342.992188 L 300.277734 332.729297 L 304.544141 355.405078 Z M 252.457031 326.161719 L 255.58125 311.733203 L 296.313672 311.733203 L 299.034766 326.161719 Z M 263.190234 259.88125 L 241.102344 254.590234 L 243.672266 233.526953 Z M 309.0625 230.839453 L 310.960547 254.254297 L 286.890625 259.679688 Z M 282.321875 265.625781 L 293.172656 305.098437 L 257.445703 305.098437 L 267.288672 265.407422 L 272.848437 272.898828 C 273.31875 273.537109 274.024219 273.906641 274.763281 273.906641 C 274.780078 273.906641 274.780078 273.906641 274.796875 273.906641 C 275.519141 273.906641 276.224609 273.553906 276.694922 272.949219 Z M 237.104687 246.460547 L 225.380469 208.852344 L 239.389062 227.748828 Z M 262.266406 265.088281 L 253.683203 299.689844 L 241.3375 260.082812 Z M 297.472656 302.007812 L 287.29375 265.004297 L 309.717578 259.965234 Z M 313.564062 225.010937 L 323.759766 211.741406 L 314.941406 242.042969 Z M 327.656641 198.3375 L 274.830469 267.036719 L 243.924219 225.363672 L 223.734375 198.102344 L 254.607031 146.502344 L 264.970703 146.502344 L 264.970703 151.961328 L 260.133203 151.961328 C 258.083984 151.961328 256.421094 153.741797 256.421094 155.925391 C 256.421094 158.125781 258.083984 159.923047 260.133203 159.923047 L 264.970703 159.923047 L 264.970703 163.567969 L 260.133203 163.567969 C 258.083984 163.567969 256.421094 165.348437 256.421094 167.548828 C 256.421094 169.749219 258.083984 171.529687 260.133203 171.529687 L 264.970703 171.529687 L 264.970703 182.48125 C 264.970703 183.942578 266.079297 185.135156 267.439844 185.135156 L 279.802344 185.135156 C 281.162891 185.135156 282.271484 183.942578 282.271484 182.48125 L 282.271484 171.529687 L 287.932031 171.529687 C 289.98125 171.529687 291.644141 169.749219 291.644141 167.548828 C 291.644141 165.348437 289.98125 163.567969 287.932031 163.567969 L 282.271484 163.567969 L 282.271484 159.923047 L 287.932031 159.923047 C 289.98125 159.923047 291.644141 158.125781 291.644141 155.925391 C 291.644141 153.741797 289.98125 151.961328 287.932031 151.961328 L 282.271484 151.961328 L 282.271484 146.502344 L 293.978906 146.502344 L 327.740625 198.035156 Z M 221.349219 101.755469 L 202.671094 135.886719 L 196.926562 117.44375 Z M 271.756641 91.559766 L 252.322656 134.64375 L 232.619922 94.532812 L 237.087891 91.660547 Z M 310.439844 91.442188 L 314.252734 93.810547 L 295.137891 136.390625 L 279.76875 91.542969 Z M 255.463672 139.867578 L 275.687109 95.019922 L 291.073047 139.867578 Z M 228.924609 98.412891 L 249.299219 139.867578 L 206.232031 139.867578 Z M 287.948828 154.615234 C 288.620703 154.615234 289.175 155.203125 289.175 155.942187 C 289.175 156.664453 288.620703 157.269141 287.948828 157.269141 L 260.133203 157.269141 C 259.461328 157.269141 258.890234 156.664453 258.890234 155.942187 C 258.890234 155.203125 259.461328 154.615234 260.133203 154.615234 Z M 287.948828 166.221875 C 288.620703 166.221875 289.175 166.826562 289.175 167.548828 C 289.175 168.287891 288.620703 168.875781 287.948828 168.875781 L 260.133203 168.875781 C 259.461328 168.875781 258.890234 168.287891 258.890234 167.548828 C 258.890234 166.826562 259.461328 166.221875 260.133203 166.221875 Z M 317.948047 97.825 L 340.455859 139.867578 L 299.068359 139.867578 Z M 325.103516 100.546094 L 346.569922 113.866016 C 346.704297 114.000391 346.821875 114.151562 346.973047 114.252344 L 351.373828 116.90625 L 345.209375 138.070312 Z M 331.503125 96.850781 L 319.409375 64.264844 L 334.089844 58.369141 L 334.089844 98.463281 Z M 334.089844 51.398438 C 333.921875 51.432031 333.753906 51.415234 333.585938 51.482422 L 322.550391 55.916797 L 334.089844 39.136719 Z M 314.185547 68.111328 L 322.852734 91.492578 L 312.808203 85.260937 C 312.337891 84.958594 311.800391 84.807422 311.262891 84.807422 L 302.696484 84.824219 Z M 236.23125 85.025781 C 235.676953 85.025781 235.122656 85.176953 234.652344 85.496094 L 224.876562 91.761328 L 233.745312 67.892969 L 245.486328 84.992188 Z M 227.060156 58.150781 L 214.445703 53.078125 L 214.445703 39.791797 Z M 214.445703 60.166406 L 227.933594 65.591797 L 216.142187 97.371484 L 214.445703 98.463281 Z M 160.275781 139.867578 L 191.417187 120.66875 L 197.396875 139.867578 Z M 248.728125 146.502344 L 220.610156 193.516797 L 205.980078 146.502344 Z M 211.993359 510.809766 L 198.539062 510.809766 L 227.3625 439.809375 L 258.319141 439.809375 Z M 335.685547 510.809766 L 289.914062 439.809375 L 320.921094 439.809375 L 349.727734 510.809766 Z M 318.485547 433.174609 L 279.735156 413.522266 L 312.489062 397.666016 L 319.157422 433.174609 Z M 329.605078 191.652344 L 300.042578 146.502344 L 342.757031 146.502344 Z M 356.866406 120.248828 L 389.15 139.867578 L 351.155469 139.867578 Z M 356.866406 120.248828 " transform="matrix(0.232558,0,0,0.232558,0,0)"/>
</g>
</svg>
